<svg width="20" height="15" viewBox="0 0 20 15" fill="none" xmlns="http://www.w3.org/2000/svg">
<path d="M0.752503 0C1.1322 0 1.44594 0.282268 1.49554 0.648363L1.50237 0.750136L1.5 13.7542C1.49992 14.1684 1.16408 14.5041 0.749864 14.5041C0.370168 14.5041 0.0564239 14.2218 0.00682807 13.8557L0 13.7539L0.00236654 0.749864C0.00244192 0.33565 0.33829 0 0.752503 0ZM13.6471 1.80373L13.7197 1.71961C13.986 1.45338 14.4027 1.42921 14.6963 1.6471L14.7804 1.71972L19.777 6.71737C20.0431 6.98352 20.0674 7.3999 19.8498 7.69349L19.7773 7.77761L14.7807 12.7811C14.488 13.0742 14.0131 13.0745 13.72 12.7818C13.4536 12.5157 13.4291 12.0991 13.6467 11.8053L13.7193 11.7211L17.43 8.004L3.75295 8.00495C3.37326 8.00495 3.05946 7.72279 3.0098 7.35672L3.00295 7.25495C3.00295 6.87525 3.28511 6.56146 3.65118 6.51179L3.75295 6.50495L17.443 6.504L13.7196 2.78028C13.4534 2.51398 13.4292 2.09732 13.6471 1.80373L13.7197 1.71961L13.6471 1.80373Z" fill="#353535"/>
</svg>
