<svg width="24" height="22" viewBox="0 0 24 22" fill="none" xmlns="http://www.w3.org/2000/svg">
<path d="M6.4611 0H6.51867C8.80898 0 10.8345 1.15528 11.9996 2.86002C13.1647 1.15528 15.1903 0 17.4806 0H17.5381C19.257 0.0156141 20.8999 0.677217 22.1098 1.84103C23.3198 3.00485 23.9991 4.57683 24 6.21537C24 8.25009 23.0651 11.1372 21.2423 13.5129C17.7692 18.0396 11.9996 22 11.9996 22C11.9996 22 6.23007 18.0403 2.75775 13.5129C0.934092 11.1372 0 8.25009 0 6.21537C0.000930786 4.57696 0.680086 3.00508 1.88989 1.84129C3.0997 0.677493 4.74241 0.0158056 6.4611 0ZM7.28466 13.8611C7.5455 13.8602 7.79994 13.7841 8.01459 13.6428C8.22923 13.5015 8.39404 13.3017 8.48738 13.0695H9.85667C9.94683 13.0689 10.0346 13.0416 10.1076 12.9912C10.1807 12.9408 10.2355 12.87 10.2642 12.7885L10.6848 11.5806L12.0157 16.0136C12.0417 16.099 12.0959 16.174 12.1704 16.2274C12.2448 16.2809 12.3355 16.3098 12.4287 16.31H12.4555C12.5528 16.3055 12.6455 16.2693 12.7181 16.2075C12.7908 16.1457 12.8389 16.0621 12.8547 15.9705L14.2262 8.10669L15.2286 12.76C15.2516 12.8484 15.305 12.9269 15.3803 12.983C15.4555 13.0391 15.5483 13.0695 15.6439 13.0695H17.5727C17.6305 13.0718 17.6882 13.063 17.7424 13.0435C17.7965 13.024 17.8459 12.9943 17.8877 12.9561C17.9295 12.9179 17.9627 12.8721 17.9855 12.8213C18.0082 12.7706 18.0199 12.716 18.0199 12.6608C18.0199 12.6057 18.0082 12.5511 17.9855 12.5003C17.9627 12.4496 17.9295 12.4038 17.8877 12.3656C17.8459 12.3274 17.7965 12.2977 17.7424 12.2782C17.6882 12.2587 17.6305 12.2499 17.5727 12.2522H15.9816L14.5616 5.99588C14.5383 5.90338 14.482 5.82147 14.4024 5.76415C14.3227 5.70684 14.2247 5.67768 14.125 5.68165C14.0253 5.68562 13.9301 5.72249 13.8558 5.78594C13.7814 5.8494 13.7325 5.9355 13.7174 6.02953L12.3166 14.0513L11.1239 10.0851C11.099 10.0015 11.0465 9.9279 10.9742 9.87515C10.9018 9.82241 10.8135 9.79338 10.7224 9.79241H10.714C10.6238 9.79244 10.5359 9.81961 10.4629 9.87006C10.3898 9.92052 10.3353 9.99166 10.3072 10.0734L9.54658 12.2544H8.50427C8.43017 12.0398 8.29529 11.8489 8.11454 11.7027C7.93379 11.5565 7.71419 11.4608 7.47997 11.4261C7.24575 11.3914 7.00603 11.4191 6.78726 11.506C6.56849 11.593 6.37918 11.7359 6.24023 11.9189C6.10127 12.102 6.01807 12.3181 5.99981 12.5433C5.98155 12.7686 6.02894 12.9943 6.13675 13.1955C6.24456 13.3968 6.40859 13.5657 6.61075 13.6836C6.81291 13.8016 7.04533 13.864 7.28236 13.864L7.28466 13.8611Z" fill="#3FC173"/>
</svg>
