<svg width="13" height="16" viewBox="0 0 13 16" fill="none" xmlns="http://www.w3.org/2000/svg">
<path d="M10.3156 9.49989C11.2471 9.49989 12.0023 10.255 12.0023 11.1865V11.6181C12.0023 12.2888 11.7626 12.9375 11.3264 13.447C10.1494 14.8221 8.35903 15.5008 6 15.5008C3.6406 15.5008 1.85109 14.8219 0.676365 13.4462C0.241544 12.937 0.00265503 12.2894 0.00265503 11.6198V11.1865C0.00265503 10.255 0.757797 9.49989 1.68931 9.49989H10.3156ZM10.3156 10.6249H1.68931C1.37912 10.6249 1.12765 10.8764 1.12765 11.1865V11.6198C1.12765 12.0216 1.27099 12.4101 1.53188 12.7156C2.47186 13.8164 3.94627 14.3758 6 14.3758C8.05373 14.3758 9.52942 13.8164 10.4718 12.7154C10.7335 12.4097 10.8773 12.0205 10.8773 11.6181V11.1865C10.8773 10.8764 10.6258 10.6249 10.3156 10.6249ZM6 0.503418C8.07107 0.503418 9.75 2.18235 9.75 4.25342C9.75 6.32449 8.07107 8.00342 6 8.00342C3.92893 8.00342 2.25 6.32449 2.25 4.25342C2.25 2.18235 3.92893 0.503418 6 0.503418ZM6 1.62842C4.55025 1.62842 3.375 2.80367 3.375 4.25342C3.375 5.70317 4.55025 6.87842 6 6.87842C7.44975 6.87842 8.625 5.70317 8.625 4.25342C8.625 2.80367 7.44975 1.62842 6 1.62842Z" fill="#353535"/>
</svg>
