<svg width="12" height="12" viewBox="0 0 12 12" fill="none" xmlns="http://www.w3.org/2000/svg">
<path d="M5.92225 0.00448513L6 0C6.34189 0 6.62367 0.25736 6.66218 0.588919L6.66667 0.666667V5.33333H11.3333C11.6752 5.33333 11.957 5.59069 11.9955 5.92225L12 6C12 6.34189 11.7426 6.62367 11.4111 6.66218L11.3333 6.66667H6.66667V11.3333C6.66667 11.6752 6.40931 11.957 6.07775 11.9955L6 12C5.65811 12 5.37633 11.7426 5.33782 11.4111L5.33333 11.3333V6.66667H0.666667C0.324776 6.66667 0.0429952 6.40931 0.00448513 6.07775L0 6C0 5.65811 0.25736 5.37633 0.588919 5.33782L0.666667 5.33333H5.33333V0.666667C5.33333 0.324776 5.59069 0.0429952 5.92225 0.00448513L6 0L5.92225 0.00448513Z" fill="white"/>
</svg>
