<svg width="8" height="8" viewBox="0 0 8 8" fill="none" xmlns="http://www.w3.org/2000/svg">
<path d="M0.779113 0.86163L0.817967 0.818019C0.999281 0.636705 1.2852 0.623754 1.48146 0.779166L1.52507 0.818019L3.99995 3.29289L6.47482 0.818019C6.65614 0.636704 6.94206 0.623754 7.13832 0.779166L7.18193 0.818019C7.36324 0.999334 7.37619 1.28526 7.22078 1.48152L7.18193 1.52513L4.70705 4L7.18193 6.47487C7.36324 6.65619 7.37619 6.94211 7.22078 7.13837L7.18193 7.18198C7.00061 7.3633 6.71469 7.37625 6.51843 7.22083L6.47482 7.18198L3.99995 4.70711L1.52507 7.18198C1.34376 7.3633 1.05784 7.37625 0.861577 7.22083L0.817967 7.18198C0.636652 7.00067 0.623701 6.71474 0.779114 6.51848L0.817967 6.47487L3.29284 4L0.817967 1.52513C0.636652 1.34381 0.623701 1.05789 0.779113 0.86163L0.817967 0.818019L0.779113 0.86163Z" fill="#353535"/>
</svg>
